<mxfile host="65bd71144e">
    <diagram id="zBbb_w2fufU70cdOGtND" name="1 oldal">
        <mxGraphModel dx="438" dy="902" grid="1" gridSize="10" guides="1" tooltips="1" connect="1" arrows="1" fold="1" page="1" pageScale="1" pageWidth="1200" pageHeight="1600" background="none" math="0" shadow="0">
            <root>
                <mxCell id="0"/>
                <mxCell id="1" parent="0"/>
                <mxCell id="5536" value="" style="rounded=0;fillColor=#C23555;fontColor=#FFFFFF;strokeColor=none;spacing=0;fontFamily=Segoe UI;fontSize=18;" parent="1" vertex="1">
                    <mxGeometry x="340" y="10" width="280" height="540" as="geometry"/>
                </mxCell>
                <mxCell id="1Txoek2s6jAQB3cqoh21-5821" value="" style="rounded=0;fillColor=#C23555;fontColor=#FFFFFF;strokeColor=none;spacing=0;fontFamily=Segoe UI;fontSize=18;" parent="1" vertex="1">
                    <mxGeometry x="10" y="10" width="280" height="540" as="geometry"/>
                </mxCell>
                <mxCell id="5401" value="Stream 1" style="text;strokeColor=none;fillColor=none;align=center;verticalAlign=middle;rounded=0;fontFamily=Segoe UI;fontSize=18;fontColor=#FFFFFF;" parent="1" vertex="1">
                    <mxGeometry y="10" width="320" height="30" as="geometry"/>
                </mxCell>
                <mxCell id="1Txoek2s6jAQB3cqoh21-5820" value="Kernel A" style="rounded=0;whiteSpace=wrap;html=1;fillColor=#A20025;fontColor=#FFFFFF;strokeColor=none;fontFamily=Segoe UI;fontSize=18;" parent="1" vertex="1">
                    <mxGeometry x="30" y="130" width="240" height="100" as="geometry"/>
                </mxCell>
                <mxCell id="1Txoek2s6jAQB3cqoh21-5819" value="Stream 2" style="text;strokeColor=none;fillColor=none;align=center;verticalAlign=middle;rounded=0;fontFamily=Segoe UI;fontSize=18;fontColor=#FFFFFF;" parent="1" vertex="1">
                    <mxGeometry x="320" y="10" width="320" height="30" as="geometry"/>
                </mxCell>
                <mxCell id="1Txoek2s6jAQB3cqoh21-5822" value="Memory Copy" style="rounded=0;whiteSpace=wrap;html=1;fillColor=#A20025;fontColor=#FFFFFF;strokeColor=none;fontFamily=Segoe UI;fontSize=18;" parent="1" vertex="1">
                    <mxGeometry x="30" y="50" width="240" height="60" as="geometry"/>
                </mxCell>
                <mxCell id="1Txoek2s6jAQB3cqoh21-5825" value="hipDeviceSynchronize" style="rounded=0;whiteSpace=wrap;html=1;fillColor=#A20025;fontColor=#FFFFFF;strokeColor=none;fontFamily=Segoe UI;fontSize=18;" parent="1" vertex="1">
                    <mxGeometry x="30" y="410" width="570" height="40" as="geometry"/>
                </mxCell>
                <mxCell id="1Txoek2s6jAQB3cqoh21-5826" value="Kernel B" style="rounded=0;whiteSpace=wrap;html=1;fillColor=#A20025;fontColor=#FFFFFF;strokeColor=none;fontFamily=Segoe UI;fontSize=18;" parent="1" vertex="1">
                    <mxGeometry x="360" y="130" width="240" height="150" as="geometry"/>
                </mxCell>
                <mxCell id="1Txoek2s6jAQB3cqoh21-5828" value="Kernel C" style="rounded=0;whiteSpace=wrap;html=1;fillColor=#A20025;fontColor=#FFFFFF;strokeColor=none;fontFamily=Segoe UI;fontSize=18;" parent="1" vertex="1">
                    <mxGeometry x="30" y="250" width="240" height="140" as="geometry"/>
                </mxCell>
                <mxCell id="5537" value="Memory Copy" style="rounded=0;whiteSpace=wrap;html=1;fillColor=#A20025;fontColor=#FFFFFF;strokeColor=none;fontFamily=Segoe UI;fontSize=18;" parent="1" vertex="1">
                    <mxGeometry x="360" y="50" width="240" height="60" as="geometry"/>
                </mxCell>
                <mxCell id="5538" value="Memory Copy" style="rounded=0;whiteSpace=wrap;html=1;fillColor=#A20025;fontColor=#FFFFFF;strokeColor=none;fontFamily=Segoe UI;fontSize=18;" parent="1" vertex="1">
                    <mxGeometry x="30" y="470" width="240" height="60" as="geometry"/>
                </mxCell>
                <mxCell id="5539" value="Memory Copy" style="rounded=0;whiteSpace=wrap;html=1;fillColor=#A20025;fontColor=#FFFFFF;strokeColor=none;fontFamily=Segoe UI;fontSize=18;" parent="1" vertex="1">
                    <mxGeometry x="360" y="470" width="240" height="60" as="geometry"/>
                </mxCell>
            </root>
        </mxGraphModel>
    </diagram>
</mxfile>